<?xml version="1.0" ?><svg id="Icons" style="enable-background:new 0 0 32 32;" version="1.1" viewBox="0 0 32 32" xml:space="preserve" xmlns="http://www.w3.org/2000/svg" xmlns:xlink="http://www.w3.org/1999/xlink"><style type="text/css">
	.st0{fill:none;stroke:#000000;stroke-width:2;stroke-linecap:round;stroke-linejoin:round;stroke-miterlimit:10;}
</style><circle class="st0" cx="24" cy="9" r="4"/><line class="st0" x1="24" x2="24" y1="1" y2="2"/><line class="st0" x1="24" x2="24" y1="16" y2="17"/><line class="st0" x1="17.1" x2="17.9" y1="5" y2="5.5"/><line class="st0" x1="30.9" x2="30.1" y1="13" y2="12.5"/><line class="st0" x1="30.9" x2="30.1" y1="5" y2="5.5"/><path class="st0" d="M27,31c-2.9-3.6-7.4-6-12.5-6S4.9,27.4,2,31H27z"/><path class="st0" d="M11,11c-4.6,0-8.4,3.4-8.9,7.9C2,19.5,2.5,20,3.1,20h15.9c0.6,0,1.1-0.5,1-1.1C19.4,14.4,15.6,11,11,11z"/><path class="st0" d="M15,20c-0.2-5.1-1.9-9-4-9s-3.7,3.9-4,9"/><line class="st0" x1="11" x2="11" y1="20" y2="25"/></svg>